<svg id="Layer_1" data-name="Layer 1" xmlns="http://www.w3.org/2000/svg" viewBox="0 0 1201.31 74.52"><defs><style>.cls-1{fill:#231f20;}.cls-2{fill:#007b3b;}</style></defs><title>Artboard 1</title><rect class="cls-1" x="-0.5" y="0.31" width="175.97" height="73.73"/><polyline class="cls-2" points="139.18 24.6 136.28 32.61 140.71 32.61 141.8 29.54 146.14 29.53 146.13 51.49 143.68 51.5 141.89 56.44 154.09 56.44 155.93 51.5 152.5 51.49 152.5 29.54 157.6 29.54 157.58 32.6 160.66 32.6 163.56 24.59 139.18 24.6"/><path class="cls-2" d="M90,24.59l-1.83,5h3.1v14.4c0,2.65-.48,4.12-1.78,5.44A6.48,6.48,0,0,1,85,51.05a7.31,7.31,0,0,1-5.27-2c-1.2-1.2-1.79-3.17-1.79-6V24.59l-9,0-1.83,4.93,3.82,0V43.24C71,56.1,81,57.11,84.08,57.11,92,57.11,97.17,52,97.17,44l0-14.47h2.29l1.77-5H90"/><path class="cls-2" d="M133.47,29.53V56.45h-3.75L111.08,36.79c0,2.61,0,14.71,0,14.71h3.44l-1.79,5H101.45l1.79-5h1.94V29.55h-4.1l1.78-5h6.92s13.36,14,18,18.84c0-1.5,0-13.88,0-13.88h-3.36l1.77-5h11.54l-1.78,5-2.47,0"/><path class="cls-1" d="M188.49,40.64v-.09c0-8.88,6.64-16.23,15.87-16.23a16.31,16.31,0,0,1,12.24,5l-2.42,2.6c-2.64-2.51-5.6-4.31-9.86-4.31-6.95,0-12.15,5.65-12.15,12.87v.09c0,7.26,5.25,13,12.15,13,4.3,0,7.13-1.66,10.13-4.53l2.33,2.29c-3.27,3.31-6.86,5.51-12.55,5.51C195.17,56.78,188.49,49.65,188.49,40.64Z"/><path class="cls-1" d="M225.17,40.64v-.09a15.9,15.9,0,0,1,16.05-16.23c9.55,0,16,7.49,16,16.14,0,0,0,0,0,.09a15.9,15.9,0,0,1-16.05,16.23C231.58,56.78,225.17,49.29,225.17,40.64Zm28.33,0v-.09c0-7.13-5.2-13-12.37-13s-12.29,5.74-12.29,12.87v.09c0,7.13,5.2,13,12.38,13S253.5,47.77,253.5,40.64Z"/><path class="cls-1" d="M269.15,24.86h3.54V53h17.66v3.27h-21.2Z"/><path class="cls-1" d="M301.38,24.86h3.54V53h17.67v3.27H301.38Z"/><path class="cls-1" d="M333.61,24.86H356.3v3.23H337.15V38.8h17.13V42H337.15V53h19.37v3.23H333.61Z"/><path class="cls-1" d="M366.74,40.64v-.09c0-8.61,6.33-16.23,15.74-16.23a16.56,16.56,0,0,1,11.7,4.17l-2.29,2.69a13.33,13.33,0,0,0-9.54-3.59c-7,0-11.93,5.88-11.93,12.87v.09c0,7.49,4.8,13.05,12.42,13.05a14.74,14.74,0,0,0,9.05-3.14v-7.8h-9.54V39.48H395.3V52a19,19,0,0,1-12.6,4.8C372.84,56.78,366.74,49.61,366.74,40.64Z"/><path class="cls-1" d="M407.77,24.86h22.68v3.23H411.31V38.8h17.12V42H411.31V53h19.37v3.23H407.77Z"/><path class="cls-1" d="M458.83,40.64v-.09a15.9,15.9,0,0,1,16.05-16.23c9.55,0,16,7.49,16,16.14,0,0,0,0,0,.09a15.9,15.9,0,0,1-16,16.23C465.24,56.78,458.83,49.29,458.83,40.64Zm28.33,0v-.09c0-7.13-5.2-13-12.37-13s-12.28,5.74-12.28,12.87v.09c0,7.13,5.2,13,12.37,13S487.16,47.77,487.16,40.64Z"/><path class="cls-1" d="M502.81,24.86h22.55v3.27h-19V39.34h17v3.23h-17V56.24h-3.54Z"/><path class="cls-1" d="M551.94,24.86h3.95l11.16,27,11.21-27h3.81L568.58,56.47h-3.14Z"/><path class="cls-1" d="M593.06,24.86h3.54V56.24h-3.54Z"/><path class="cls-1" d="M608.21,51.67l2.19-2.6c3.28,3,6.42,4.44,10.76,4.44s7-2.24,7-5.34v-.09c0-2.91-1.57-4.57-8.16-6-7.22-1.57-10.54-3.9-10.54-9.06V33c0-4.93,4.35-8.56,10.31-8.56a16.34,16.34,0,0,1,11,3.86L628.74,31a13.81,13.81,0,0,0-9-3.41c-4.08,0-6.69,2.25-6.69,5.07v.09c0,3,1.62,4.62,8.52,6.1s10.22,4.08,10.22,8.87v.09c0,5.38-4.48,8.88-10.71,8.88A18.35,18.35,0,0,1,608.21,51.67Z"/><path class="cls-1" d="M643,43.11V24.86h3.54v18c0,6.77,3.59,10.58,9.6,10.58,5.78,0,9.46-3.49,9.46-10.35V24.86h3.54v18c0,9.14-5.25,13.9-13.09,13.9S643,52,643,43.11Z"/><path class="cls-1" d="M692.45,24.64h3.31l14.31,31.6h-3.81L702.58,48H685.5l-3.72,8.29h-3.63Zm8.74,20.13-7.13-16-7.17,16Z"/><path class="cls-1" d="M720.74,24.86h3.54V53h17.66v3.27h-21.2Z"/><path class="cls-1" d="M782.51,24.64h3.32l14.3,31.6h-3.81L792.65,48H775.56l-3.72,8.29h-3.63Zm8.75,20.13-7.13-16-7.18,16Z"/><path class="cls-1" d="M810.8,24.86h13.5c3.85,0,7,1.17,8.92,3.14a8.67,8.67,0,0,1,2.42,6.18v.09c0,5.21-3.59,8.25-8.52,9.15l9.64,12.82h-4.35l-9.1-12.19h-9V56.24H810.8Zm13.18,16c4.71,0,8.07-2.43,8.07-6.46v-.09c0-3.86-3-6.19-8-6.19h-9.69V40.87Z"/><path class="cls-1" d="M855.68,28.13H845.14V24.86H869.8v3.27H859.27V56.24h-3.59Z"/><path class="cls-1" d="M878.19,51.67l2.19-2.6c3.27,3,6.41,4.44,10.76,4.44s7-2.24,7-5.34v-.09c0-2.91-1.56-4.57-8.15-6-7.22-1.57-10.54-3.9-10.54-9.06V33c0-4.93,4.35-8.56,10.31-8.56a16.36,16.36,0,0,1,11,3.86L898.72,31a13.84,13.84,0,0,0-9.06-3.41c-4.08,0-6.68,2.25-6.68,5.07v.09c0,3,1.62,4.62,8.52,6.1s10.22,4.08,10.22,8.87v.09c0,5.38-4.48,8.88-10.71,8.88A18.35,18.35,0,0,1,878.19,51.67Z"/><path class="cls-1" d="M949.06,51.8c-2.86,3.1-6.18,4.89-10.26,4.89-5.65,0-9.87-3.54-9.87-8.79v-.09c0-4.17,2.78-7.17,7.58-9.05-2.15-2.51-3.14-4.44-3.14-6.91v-.09c0-4.12,3.32-7.44,8.3-7.44,4.39,0,7.62,3.19,7.62,7.08v.09c0,4-2.83,6.55-7.4,8.16L949.06,47a41,41,0,0,0,3.77-7l2.91,1.34a44,44,0,0,1-4.52,7.89l5.46,5.61L954,56.87Zm-2.15-2.19L938.53,41c-4.17,1.53-6,4.08-6,6.73v.09c0,3.36,2.69,5.92,6.55,5.92C942,53.69,944.63,52.12,946.91,49.61ZM946,31.67v-.09a4.26,4.26,0,0,0-4.44-4.34,4.49,4.49,0,0,0-4.75,4.52v.09c0,1.84.76,3.23,3.14,5.79C943.91,36.29,946,34.36,946,31.67Z"/><path class="cls-1" d="M985,24.86h10.9c9.86,0,16.68,6.77,16.68,15.6v.09c0,8.83-6.82,15.69-16.68,15.69H985ZM995.87,53c7.93,0,13-5.38,13-12.33v-.09c0-6.95-5.07-12.42-13-12.42h-7.35V53Z"/><path class="cls-1" d="M1024.52,24.86h22.68v3.23h-19.14V38.8h17.12V42h-17.12V53h19.37v3.23h-22.91Z"/><path class="cls-1" d="M1057,51.67l2.2-2.6c3.27,3,6.41,4.44,10.76,4.44s7-2.24,7-5.34v-.09c0-2.91-1.57-4.57-8.16-6-7.21-1.57-10.53-3.9-10.53-9.06V33c0-4.93,4.35-8.56,10.31-8.56a16.36,16.36,0,0,1,11,3.86L1077.51,31a13.84,13.84,0,0,0-9.06-3.41c-4.08,0-6.68,2.25-6.68,5.07v.09c0,3,1.61,4.62,8.52,6.1s10.22,4.08,10.22,8.87v.09c0,5.38-4.48,8.88-10.71,8.88A18.39,18.39,0,0,1,1057,51.67Z"/><path class="cls-1" d="M1092.53,24.86h3.54V56.24h-3.54Z"/><path class="cls-1" d="M1108.35,40.64v-.09c0-8.61,6.32-16.23,15.74-16.23a16.56,16.56,0,0,1,11.7,4.17l-2.29,2.69a13.34,13.34,0,0,0-9.55-3.59c-7,0-11.92,5.88-11.92,12.87v.09c0,7.49,4.79,13.05,12.42,13.05a14.76,14.76,0,0,0,9-3.14v-7.8H1124V39.48h13V52a19,19,0,0,1-12.6,4.8C1114.45,56.78,1108.35,49.61,1108.35,40.64Z"/><path class="cls-1" d="M1149.37,24.86h3.32L1172.46,50V24.86h3.45V56.24h-2.82l-20.27-25.73V56.24h-3.45Z"/></svg>